<?xml version="1.0" encoding="UTF-8"?>
<svg id="Layer_1" data-name="Layer 1" xmlns="http://www.w3.org/2000/svg" viewBox="0 0 443.18 444.07">
  <defs>
    <style>
      .cls-1 {
        fill: #fff;
      }

      .cls-2 {
        fill: #2f51a3;
      }
    </style>
  </defs>
  <path d="M235.94,77.05l.06,77.33c-1.87,1.12-13.61,4.84-14.54,3.94.73-5.36,10.02-12.33,9.83-17.5l-9.57-45.09c-.49-.58-1.12-.58-1.8-.39-2.41.68-12.36,17.68-15.51,20.01h-54.42v43.21l.7.7h44.84c.5,0,.7,1.03.68,1.57-.14,3.36-2.35,7.02-2.72,10.4-1.34,12.23,9.48,21.88,12.56,32.87-2.28-.05-4.5.8-6.76.95-15.46,1.04-32.1-.8-47.69-.04l-1.61.72v73.57h-42.97V77.05h128.92Z"/>
  <path class="cls-1" d="M255.5,172.87c.34,3.81,9.15,26.17,8.26,27.95-.33.65-1.14,1.03-1.87.97-2.1-.19-1.94-3.63-2.44-5.07-2.2-6.35-4.62-12.75-6.22-19.24l-6.02,1.92,7.21,22.82c1.2,3.71-1.94,4.63-3.38,1.05-2.3-5.74-4.26-12.85-6.35-18.87-.44-1.25.05-3.01-1.51-3.2-.96-.11-5.59,1.28-5.79,2.17l8.16,24.46-1.42,1.21-1.18-.06c-3.8-7.64-5.66-16.4-8.63-24.49-1.11-1.41-4.62,1.86-6.31,1.41l8.11,24.83c.81,1.87-2.34,2.74-3.45,2.05-1.51-.94-7.07-21.8-8.76-24.89-.52-1.94-6-1.87-4.75-3.83l33.89-11.19h2.45Z"/>
  <path class="cls-1" d="M245.12,355.29c-5.86,5.19-16.4,2.04-17.85-5.89-2.08-11.38,11.93-18.36,19.19-8.44,2.92,4,2.39,11.03-1.34,14.33Z"/>
  <path class="cls-1" d="M232.34,223.86c.49-.38,4.43-2.03,5.34-2.37,2.29-.86,4.98-1.31,7.24-2.1,4.42-1.56,9.3-3.97,13.9-4.81.8-.15.87-.22,1.42.52.33,1.34-2.36,3.85-3.41,4.52-2.81,1.78-18.49,7.65-21.59,7.85-2.78.18-5.21-1.79-2.89-3.6Z"/>
  <g>
    <path class="cls-2" d="M336.71,277.54c-5.78,32.14-32.67,61.54-65.67,65.89l.05-89.64s.57-15.23,13.33-31.78c11.81-15.32,23.14-27.14,24.76-28.81.51.31,1.16.92,1.47,1.22,22.3,21.35,31.56,52.61,26.07,83.12Z"/>
    <path d="M295.27,94.09c22.18,20.63,33.85,54.02,22.64,83.38-2.39,6.25-6.05,9.79-9.11,15.56.1.03.23.09.36.17-1.62,1.67-12.95,13.49-24.76,28.81-12.75,16.55-13.33,31.78-13.33,31.78l-.05,89.64c-.19.03-.37.05-.56.07-1.55,7.37-2.65,12.64-7.89,18.26-17.01,18.23-45.97,7.97-46.55-17.68-.15-6.67.51-14.73.74-21.59.96-29.08,3.41-58.74,3.77-87.78.18-13.8-3.75-24.58-9.13-37.15-3.44-8.01-8.42-15.36-11.36-23.48.52-3.03,2.59-4.1,5.26-5.05,17.96-6.39,37.5-10.57,55.34-17.53,3.08-5.41,10.58-11.51,13.05-16.86.25-.55.64-.99.44-1.66l-12.49-55.3.65-1.01c12.54,2.17,23.75,8.85,32.96,17.41ZM308.29,179.52c.81-1.61,4.73-10.52,4.71-11.65-.01-.63-.25-.76-.68-1.13-8.65,10.14-17.97,19.75-26.63,29.88-14.72,17.22-29.61,32.81-30.61,56.74-1.15,27.59.92,55.98,0,83.66.09,3.86,3.79,5.16,6.4,2.38,1.5-1.59,1.89-4.44,2.05-6.59,1.93-26.4-1.51-55.09.02-81.73,1.41-10.71,5.12-18.34,10.98-27.08,9.82-14.65,26.17-29.51,33.77-44.48ZM263.76,200.82c.89-1.78-7.93-24.14-8.26-27.95h-2.45s-33.89,11.18-33.89,11.18c-1.25,1.96,4.23,1.89,4.75,3.83,1.69,3.09,7.25,23.95,8.76,24.89,1.1.69,4.25-.19,3.45-2.05l-8.11-24.83c1.68.46,5.19-2.82,6.31-1.41,2.97,8.09,4.83,16.84,8.63,24.49l1.18.06,1.42-1.21-8.16-24.46c.2-.89,4.83-2.28,5.79-2.17,1.56.18,1.07,1.94,1.51,3.2,2.09,6.03,4.05,13.14,6.35,18.88,1.44,3.58,4.59,2.66,3.39-1.05l-7.21-22.82,6.02-1.92c1.6,6.49,4.02,12.89,6.22,19.24.5,1.44.35,4.89,2.44,5.07.72.07,1.54-.32,1.87-.97ZM256.82,219.6c1.06-.67,3.75-3.18,3.41-4.52-.55-.73-.62-.66-1.42-.52-4.6.84-9.48,3.26-13.9,4.82-2.26.79-4.95,1.24-7.24,2.11-.91.34-4.85,1.99-5.34,2.37-2.32,1.81.11,3.78,2.89,3.6,3.1-.21,18.78-6.07,21.59-7.86ZM245.13,355.29c3.73-3.3,4.26-10.34,1.34-14.33-7.26-9.92-21.26-2.94-19.18,8.44,1.44,7.93,11.98,11.08,17.84,5.89Z"/>
    <path class="cls-1" d="M313,167.87c.02,1.13-3.9,10.05-4.71,11.65-7.6,14.97-23.95,29.83-33.77,44.48-5.86,8.74-9.57,16.38-10.98,27.08-1.53,26.64,1.91,55.33-.02,81.73-.16,2.15-.55,5-2.05,6.59-2.61,2.77-6.31,1.48-6.4-2.38.92-27.68-1.15-56.06,0-83.66,1-23.93,15.89-39.52,30.61-56.74,8.66-10.13,17.98-19.74,26.63-29.88.43.37.67.5.68,1.13Z"/>
  </g>
</svg>